<?xml version="1.0" encoding="utf-8"?>
<!-- Generator: $$$/GeneralStr/196=Adobe Illustrator 27.6.0, SVG Export Plug-In . SVG Version: 6.00 Build 0)  -->
<svg version="1.1" id="layer_1" xmlns="http://www.w3.org/2000/svg" xmlns:xlink="http://www.w3.org/1999/xlink" x="0px" y="0px"
	 viewBox="0 0 512 512" style="enable-background:new 0 0 512 512;" xml:space="preserve">
<style type="text/css">
	.st0{fill:#FFFFFF;}
</style>
<path class="st0" d="M339,512H173C77.5,512,0,434.5,0,339V173C0,77.5,77.5,0,173,0H339c95.6,0,173,77.5,173,173V339
	C512,434.5,434.5,512,339,512z"/>
<g>
	<g>
		<path d="M238.7,275.5c5.2-0.8,10-1.6,15.3-2c13.8-1.8,27.3-5,40.1-9.4c12.4-4.4,24.1-10.2,34.9-17.7c0.6-0.6,1.4-0.8,2-0.8
			c1,0,1.8,0.6,2.6,1.6c0.4,0.6,0.6,1,0.6,1.6v0.6c0,0.6-0.4,1.4-1.4,2c-10.6,7.6-22.7,13.6-35.5,18.3c-12.8,4.4-26.1,7.4-39.9,9.4
			c-8.6,1.4-17.5,2.4-26.3,3.6c-0.6,0-1,0-1.6,0.2c-1,0.2-1.4,1-1.8,1.8c-6.4,13-13,25.9-19.9,38.7c-10.4,20.3-21.9,39.7-34.9,58
			c-8.6,12.2-18.5,23.5-30.1,33.1c-9.8,8-21.7,12-35.3,12h-0.8c-12.2,0-22.7-5.2-31.7-15.7c-4.6-6.2-7.6-12.8-8.8-19.9l-0.4-3.8
			c-0.2-1.8-0.2-3.2-0.2-4.6c0-12,3.2-22.5,9.2-32.1c7.4-11.8,17.1-21.5,28.7-29.3c20.5-14.2,43.1-25.3,67.8-32.9
			c14.2-4.4,28.9-7.4,44.1-9.4c1.4-0.2,1.6-1,2-1.8l8-16.7c8-16.5,16.3-32.9,24.3-49.4c13.8-28.5,29.3-56,46-82.7
			c6.2-10,13-19.3,20.9-28.1c0.2-0.2,0.4-0.4,0.4-1l-3.4,1c-2.4,0.8-5,1.6-7.4,2c-12.8,3.6-25.7,6.8-38.7,9.8l-20.7,5.2
			c-23.7,5.4-46.6,12.8-68.6,21.3c-13.8,5.4-26.7,12.4-37.9,21.5c-5.2,4.4-9.8,9.4-13.6,15.5c-4.2,7-6.2,14.4-6.2,22.3
			c0,2.6,0.2,5.2,0.8,8c0.8,4.2,2,8.4,3.8,12.8l0.4,1v0.6c0,1-0.8,1.8-2,1.8c0-0.2-0.4-0.2-0.8-0.2c-1.4,0-2.4-0.8-2.8-2.4
			c-1.8-4.6-3.2-9.4-4-14c-0.6-3.2-1-6.4-1-9.6c0-11,3.6-21.1,11-30.1c7.8-9.2,16.9-16.5,27.7-22.5c17.9-9.4,36.9-17.1,57.4-22.9
			c18.3-5.2,36.7-10,55.4-14.4l6.6-1.8l3.2-0.8c13.4-3.2,26.7-6.6,39.7-10.6c5.4-1.8,10.6-4,15.5-6.8c0.6-0.2,1-0.4,1.6-0.4
			c0.4,0,0.8,0,1.4,0.2c1,0.2,1.8,0.8,2.4,1.8l0.8,1.6v0.6c0,0.8-0.4,1.6-1.4,2.4c-8.6,6.2-15.9,14-21.9,22.9
			c-13.4,19.1-24.7,39.1-34.7,60.4c-7.4,15.5-14.6,30.5-21.7,46L242.4,254l-6.4,13.4l-3.2,6.6l-0.6,1c-0.2,0.2-0.2,0.6-0.4,1
			C233.9,275.9,236.1,275.5,238.7,275.5L238.7,275.5z M212.1,285.3h-1l-4,0.8c-3.8,0.6-7.6,1.4-11.4,2
			c-35.5,7.4-66.6,21.3-94.3,41.7c-10.4,7.6-18.5,17.3-24.5,28.7c-3.8,7-5.8,14.8-5.8,23.1c0,3.2,0.2,6.6,0.8,9.8
			c1.6,8.6,5.8,15.9,13,21.9c5.8,4.2,11.8,6.4,18.3,6.6c1.4,0.2,2.6,0.2,4,0.2c6.6,0,12.4-1.6,18.1-4.4c5.8-3.8,10.6-8,15.7-13
			c10.6-11.4,20.1-23.7,28.3-37.1c13-21.3,25.3-43.1,36.3-65.6l4.6-10c1-1.6,1.8-3.2,2.4-5C212.7,285.3,212.3,285.3,212.1,285.3
			L212.1,285.3z"/>
		<path d="M107.5,432.1h-0.8c-13.7,0-25.8-5.9-35.9-17.6l-0.3-0.3c-5.2-7-8.5-14.5-9.8-22.2l0-0.4l-0.4-3.8
			c-0.2-2.1-0.2-3.7-0.2-5.2c0-12.7,3.3-24.2,10.1-35c7.6-12.1,17.8-22.5,30.3-30.9c20.9-14.5,44.2-25.9,69.3-33.6
			c12.7-3.9,26-6.9,40.6-9l1.2-3.5l1.6,3.1c0,0,0,0,0,0l7.5-15.6c4-8.3,8.2-16.6,12.2-24.7c4-8.1,8.1-16.5,12.1-24.7
			c13.2-27.3,28.8-55.2,46.2-83.2c3.6-5.7,7.3-11.2,11.2-16.4c-10.4,2.8-21.5,5.6-33.6,8.4l-20.7,5.2c-21.4,4.9-43.6,11.8-67.9,21
			c-13.9,5.4-26.2,12.4-36.4,20.6c-5.1,4.3-9.2,9-12.5,14.1c-3.6,6.1-5.4,12.4-5.4,19.4c0,2.5,0.2,4.7,0.7,6.9l0,0.1
			c0.8,4.1,1.9,7.9,3.5,11.8l0.8,2v1.7c0,4.1-3.3,7.3-7.5,7.3h-5.5V226c-1.6-1.1-2.7-2.7-3.3-4.7c-1.9-5-3.4-10.1-4.2-14.8
			c-0.7-3.9-1.1-7.3-1.1-10.6c0-12.4,4.1-23.7,12.3-33.6c8.1-9.6,17.7-17.4,29.3-23.8l0.1-0.1c18.2-9.6,37.9-17.4,58.5-23.3
			c18.2-5.2,36.9-10.1,55.5-14.5l6.6-1.8l3.2-0.8c15.7-3.7,28.2-7.1,39.4-10.5c5.5-1.8,10.2-3.9,14.4-6.3l0.5-0.3l0.8-0.3
			c0.6-0.2,1.7-0.6,3.1-0.6c0.5,0,1.5,0,2.8,0.4c2.4,0.6,4.4,2.1,5.7,4.3l0.2,0.4l1.4,2.8v1.9c0,1.8-0.6,4.4-3.5,6.7l-0.2,0.2
			c-7.7,5.5-14.6,12.8-20.5,21.5c-12.5,17.7-23.7,37.2-34.3,59.6c-7.1,14.9-14.5,30.2-21.6,45.9l-15.5,32.8l-6.3,13.2
			c4.1-0.6,8.1-1.2,12.4-1.6c13.2-1.7,26.3-4.8,38.9-9.2c12-4.2,23.2-9.9,33.3-16.8c1.5-1.3,3.4-2,5.4-2c2.6,0,5,1.2,6.9,3.7
			l0.3,0.4c0.8,1.1,1.5,2.6,1.5,4.7v0.6c0,2.6-1.4,5-3.8,6.6c-10.6,7.6-22.9,13.9-36.7,18.9c-12.7,4.4-26.1,7.5-41,9.7
			c-5.9,1-12,1.7-17.9,2.5c-2.7,0.3-5.4,0.7-8.1,1.1c-5.9,12-12.3,24.4-19.5,37.9c-11.4,22.1-23,41.3-35.3,58.6
			c-9.6,13.6-19.8,24.8-31.1,34.1C135.5,427.6,122.5,432.1,107.5,432.1z M88.2,409c4.9,3.5,9.8,5.3,15.1,5.5l0.6,0.1
			c1,0.1,1.9,0.1,3.2,0.1c5.3,0,10.2-1.2,15.3-3.7c4.8-3.2,9.2-6.8,14.4-12.1c10.7-11.5,19.7-23.3,27.6-36.2
			c13.6-22.1,25.7-44,36-65.1l2.4-5.2c-0.2,0-0.4,0.1-0.5,0.1c-1.9,0.3-3.8,0.7-5.7,1c-34.7,7.3-64.8,20.6-92,40.7
			c-9.6,7-17.1,15.8-22.9,26.8c-3.5,6.4-5.2,13.2-5.2,20.5c0,3.3,0.2,6.3,0.7,8.8C78.6,397.8,82.2,403.9,88.2,409z M214.9,292.5
			l-4.5,9.9c-10.5,21.4-22.8,43.7-36.6,66.1c-6.5,10.6-13.7,20.5-22,30.1c5.8-6,11.3-12.8,16.6-20.3c12.1-16.9,23.3-35.6,34.5-57.3
			c7.3-13.8,13.8-26.4,19.8-38.5l-0.3,0l4.3-8.5c0.1-0.5,0.4-1.2,0.9-1.9l0.3-0.6l3.1-6.4l6.4-13.4l15.4-32.7
			c3.6-7.9,7.3-15.7,10.9-23.5c-3.1,6-6.1,12-9,18c-4,8.3-8.2,16.6-12.2,24.7c-4,8.1-8.1,16.4-12.1,24.6l-8.1,16.9
			c-0.4,0.9-1.5,3.2-4.4,4.2c0.3,1.4,0,2.9-0.7,4.1c0,0,0,0,0,0.1C216.5,289.6,215.8,291,214.9,292.5z M212.1,284.9v0.2l0,0
			L212.1,284.9C212.1,284.9,212.1,284.9,212.1,284.9z M322.5,96.1v0.3c0.1-0.1,0.3-0.3,0.4-0.4C322.8,96,322.6,96,322.5,96.1z"/>
	</g>
	<g>
		<path d="M308.8,283.5c0-8,2-15.5,6.4-22.3c5.4-9.6,13.4-16.7,23.9-21.1c2.8-1,5.8-1.8,8.6-1.8c1.4,0,2.8,0.2,4.4,0.4
			c4.4,1,6.8,3.2,7.4,6.6c0.2,0.8,0.2,1.6,0.2,2.4c-1,6.2-3.6,11.4-8.4,15.3c-0.2,0.2-0.6,0.4-0.8,0.4c-0.4,0-0.8-0.2-1-0.8l-0.8-1
			c-0.6-0.8-1-1.6-1.6-2.4l-0.2-0.4v-0.4c0-0.2,0-0.4,0.2-0.6l1-0.8l1-0.8c1.8-2.4,3.2-5.2,4.2-8.4c0.2-0.2,0.2-0.2,0.2-0.4
			c0.2-0.8,0.2-1.4,0.2-1.6l-0.6-0.8c-0.2-0.2-0.4-0.2-0.6-0.2h-0.2l-0.8,0.4l-0.6,0.4c-11.2,5.2-19.7,12.8-25.7,22.9
			c-4.2,6.2-6.6,13-7.6,20.9l-0.2,1c0,1,0,1.8,0.2,2.6c1,5.2,4.4,7.6,10.4,7.6c5.8-0.4,11.4-1.4,17.1-2.8
			c16.5-4.6,32.1-11,46.8-18.9c16.9-8.6,33.5-17.7,49.2-27.5l0.6-0.4l0.6-0.6h0.4c0.4,0,0.8,0.2,1,0.4c1.6,1,2.4,2.4,2.8,4.2v0.4
			c0,0.2-0.2,0.6-0.8,0.8c-0.2,0-0.2,0-0.4,0.2c-9.6,5.8-19.7,11.8-29.5,17.5c-16.5,9.4-33.9,17.5-52,24.5c-10,4-20.5,6.6-31.7,8
			c-1,0.2-2,0.2-3.2,0.2c-2.4,0-4.4-0.4-7-1c-7.2-2-11.4-7.4-13-16.3C309,287.5,308.8,285.3,308.8,283.5L308.8,283.5z"/>
		<path d="M328.8,312.1c-3.1,0-5.5-0.5-8.3-1.1l-0.2-0.1c-9.3-2.6-15-9.5-17-20.6l-0.1-0.8l0.1-0.8c0.1-0.8,0.1-2,0-3.2
			c0-0.7,0-1.4,0-2c0-9.2,2.4-17.7,7.2-25.1c6-10.6,14.9-18.4,26.4-23.3l0.3-0.1c4-1.4,7.4-2.1,10.5-2.1c1.6,0,3,0.2,4.6,0.4
			l1.1,0.2c8.6,2,11,7.6,11.6,10.8c0.3,1.4,0.3,2.6,0.3,3.5v0.4l-0.1,0.4c-1.3,7.9-4.7,14.1-10.3,18.6c-1,0.9-2.6,1.7-4.3,1.7
			c-2.4,0-4.5-1.3-5.7-3.4l-0.5-0.6c-0.4-0.6-0.8-1.1-1.1-1.6c-0.2-0.3-0.3-0.5-0.5-0.8l-0.3-0.4l-1-2v-1.7c0-0.2,0-0.4,0-0.5
			c-4.5,3.7-8.3,8.2-11.5,13.4l-0.2,0.3c-3.6,5.3-5.8,11.4-6.7,18.5l-0.2,0.8c0,0.3,0,0.6,0,0.7l0.1,0.3c0.3,1.7,0.6,3.1,4.9,3.2
			c5-0.4,10.2-1.2,15.8-2.6c15.6-4.4,30.9-10.6,45.6-18.4c19.8-10.1,35.3-18.8,48.8-27.3l0.1-0.1l1.8-1.8h2.7c1.5,0,3.1,0.5,4.3,1.5
			c2.5,1.7,4.2,4.2,4.9,7.5l0.1,0.6v1c0,2.5-1.6,4.8-4.1,5.8c-11,6.6-20.2,12.1-29.4,17.4c-15.8,9.1-33.1,17.2-52.7,24.8
			c-10.3,4.1-21,6.8-32.8,8.3C331.5,312.1,330.1,312.1,328.8,312.1z M337.9,246.7c-7.7,4-13.8,9.7-17.9,17.2l-0.2,0.3
			c-2.6,4-4.3,8.3-5,12.9c1.4-4.2,3.4-8,5.8-11.7C325.1,258,330.9,251.7,337.9,246.7z"/>
	</g>
</g>
</svg>
