<svg xmlns="http://www.w3.org/2000/svg" xml:space="preserve" style="enable-background:new 0 0 512 512" viewBox="0 0 512 512"><radialGradient id="a" cx="514.075" cy=".189" r="688.363" gradientTransform="rotate(90 257.307 254.693)" gradientUnits="userSpaceOnUse"><stop offset="0" style="stop-color:#fff"/><stop offset="1" style="stop-color:#edf3ff"/></radialGradient><path d="M512 336.3V170.4C512 85.1 450.3 14.2 369.1 0H142.9C71.5 12.5 15.1 68.9 2.6 140.3v226.1c14.3 81.3 85.1 143 170.4 143h166c95.5 0 173-77.5 173-173.1z" style="fill:url(#a)"/><path d="M240.4 273.6c4.7-.7 9.1-1.5 13.8-1.8 12.5-1.6 24.7-4.5 36.3-8.5 11.3-4 21.8-9.3 31.6-16 .5-.5 1.3-.7 1.8-.7.9 0 1.6.5 2.4 1.5.4.5.5.9.5 1.5v.5c0 .5-.4 1.3-1.3 1.8-9.6 6.9-20.5 12.3-32.1 16.5-11.6 4-23.6 6.7-36.1 8.5-7.8 1.3-15.8 2.2-23.8 3.3-.5 0-.9 0-1.5.2-.9.2-1.3.9-1.6 1.6-5.8 11.8-11.8 23.4-18 35-9.4 18.3-19.8 36-31.6 52.5-7.8 11.1-16.7 21.2-27.2 30-8.9 7.3-19.6 10.9-32 10.9h-.7c-11.1 0-20.5-4.7-28.7-14.2-4.2-5.6-6.9-11.6-8-18l-.4-3.5c-.2-1.6-.2-2.9-.2-4.2 0-10.9 2.9-20.3 8.4-29.1 6.7-10.7 15.4-19.4 26-26.5 18.5-12.9 39-22.9 61.4-29.8 12.9-4 26.1-6.7 39.9-8.5 1.3-.2 1.5-.9 1.8-1.6l7.3-15.1c7.3-14.9 14.7-29.8 22-44.7 12.5-25.8 26.5-50.7 41.6-74.8 5.6-9.1 11.8-17.4 18.9-25.4.2-.2.4-.4.4-.9l-3.1.9c-2.2.7-4.5 1.5-6.7 1.8-11.6 3.3-23.2 6.2-35 8.9l-18.7 4.7c-21.4 4.9-42.1 11.6-62.1 19.2-12.5 4.9-24.2 11.3-34.3 19.4-4.7 4-8.9 8.5-12.3 14-3.8 6.4-5.6 13.1-5.6 20.2 0 2.4.2 4.7.7 7.3.7 3.8 1.8 7.6 3.5 11.6l.4.9v.5c0 .9-.7 1.6-1.8 1.6 0-.2-.4-.2-.7-.2-1.3 0-2.2-.7-2.5-2.2-1.6-4.2-2.9-8.5-3.6-12.7-.5-2.9-.9-5.8-.9-8.7 0-10 3.3-19.1 10-27.2 7.1-8.4 15.3-14.9 25.1-20.3 16.2-8.5 33.4-15.4 51.9-20.7 16.5-4.7 33.2-9.1 50.1-13.1l6-1.6 2.9-.7c12.2-2.9 24.2-6 36-9.6 4.9-1.6 9.6-3.6 14-6.2.5-.2.9-.4 1.5-.4.4 0 .7 0 1.3.2.9.2 1.6.7 2.2 1.6l.7 1.5v.5c0 .7-.4 1.5-1.3 2.2-7.8 5.6-14.3 12.7-19.8 20.7-12.2 17.3-22.3 35.4-31.4 54.7-6.7 14-13.3 27.6-19.6 41.6l-14 29.6-5.8 12.2-2.9 6-.5.9c-.2.2-.2.5-.4.9 1.4-.1 3.4-.5 5.8-.5zm-24.2 8.9h-.9l-3.6.7c-3.5.5-6.9 1.3-10.4 1.8-32.1 6.7-60.3 19.2-85.3 37.8-9.4 6.9-16.7 15.6-22.2 26-3.5 6.4-5.3 13.4-5.3 20.9 0 2.9.2 6 .7 8.9 1.5 7.8 5.3 14.3 11.8 19.8 5.3 3.8 10.7 5.8 16.5 6 1.3.2 2.4.2 3.6.2 6 0 11.3-1.5 16.3-4 5.3-3.5 9.6-7.3 14.2-11.8 9.6-10.4 18.2-21.4 25.6-33.6 11.8-19.2 22.9-39 32.9-59.4l4.2-9.1c.9-1.5 1.6-2.9 2.2-4.5.3.3-.1.3-.3.3z"/><path d="M121.6 415.3h-.7c-12.4 0-23.3-5.3-32.5-15.9l-.2-.3c-4.7-6.3-7.7-13.1-8.9-20.1v-.3l-.4-3.5c-.2-1.9-.2-3.4-.2-4.7 0-11.5 3-21.9 9.1-31.7 6.9-11 16.1-20.4 27.4-28 18.9-13.2 40-23.4 62.7-30.4 11.5-3.6 23.5-6.2 36.7-8.2l1.1-3.2 1.4 2.8 6.8-14.1c3.6-7.5 7.4-15 11-22.4 3.6-7.3 7.4-14.9 11-22.3 12-24.7 26.1-50 41.8-75.3 3.2-5.2 6.6-10.1 10.2-14.8-9.4 2.6-19.4 5.1-30.4 7.6l-18.8 4.7c-19.4 4.4-39.5 10.7-61.4 19-12.6 4.9-23.7 11.2-32.9 18.6-4.6 3.9-8.3 8.1-11.3 12.8-3.3 5.5-4.9 11.2-4.9 17.5 0 2.3.2 4.3.6 6.2v.1c.7 3.7 1.7 7.2 3.2 10.7l.7 1.8v1.5c0 3.7-3 6.6-6.8 6.6h-5v-1.5c-1.4-1-2.5-2.5-3-4.3-1.7-4.5-3.1-9.1-3.8-13.4-.7-3.5-1-6.7-1-9.6 0-11.2 3.7-21.4 11.1-30.4 7.4-8.7 16-15.7 26.5-21.5h.1c16.5-8.7 34.3-15.8 52.9-21.1 16.5-4.7 33.4-9.1 50.2-13.1l6-1.6 2.9-.7c14.2-3.4 25.5-6.4 35.6-9.5 5-1.7 9.2-3.5 13-5.7l.4-.3.7-.2c.6-.2 1.5-.5 2.8-.5.5 0 1.4 0 2.6.3 2.2.5 3.9 1.9 5.2 3.9l.2.3 1.3 2.5v1.7c0 1.6-.5 4-3.1 6.1l-.2.2c-6.9 5-13.2 11.6-18.6 19.5-11.3 16.1-21.5 33.7-31 54-6.5 13.5-13.1 27.3-19.6 41.5l-14 29.7-5.7 11.9c3.7-.6 7.3-1.1 11.2-1.4 11.9-1.6 23.8-4.4 35.2-8.3 10.8-3.8 21-9 30.1-15.2 1.3-1.1 3.1-1.8 4.9-1.8 2.4 0 4.5 1.1 6.2 3.3l.3.3c.7 1 1.4 2.3 1.4 4.2v.5c0 2.4-1.3 4.6-3.5 6-9.6 6.8-20.7 12.6-33.2 17.1-11.5 4-23.6 6.8-37.1 8.8-5.3.9-10.8 1.6-16.2 2.3-2.4.3-4.9.6-7.3 1-5.3 10.8-11.1 22.1-17.6 34.3-10.3 20-20.8 37.4-31.9 53-8.7 12.3-17.9 22.4-28.1 30.9-9.8 8.1-21.6 12.1-35.2 12.1zm-17.4-20.9c4.4 3.2 8.9 4.8 13.6 5h.5c.9.1 1.8.1 2.9.1 4.8 0 9.2-1.1 13.9-3.3 4.4-2.9 8.3-6.2 13.1-10.9 9.7-10.4 17.8-21.1 24.9-32.7 12.3-20 23.2-39.8 32.6-58.9l2.2-4.7c-.2 0-.3.1-.5.1-1.7.3-3.4.6-5.2.9-31.4 6.6-58.6 18.6-83.3 36.9-8.7 6.3-15.4 14.3-20.7 24.3-3.1 5.8-4.7 12-4.7 18.6 0 3 .2 5.7.6 8 1.3 6.5 4.6 12 10.1 16.6zM218.8 289l-4.1 8.9c-9.5 19.4-20.7 39.5-33.1 59.8-5.9 9.6-12.4 18.6-19.9 27.3 5.2-5.5 10.2-11.6 15-18.4 10.9-15.3 21.1-32.2 31.2-51.9 6.6-12.5 12.5-23.8 17.9-34.8h-.3l3.9-7.7c.1-.4.3-1 .8-1.7l.3-.5 2.8-5.8 5.8-12.1 14-29.6c3.3-7.2 6.6-14.2 9.9-21.2-2.8 5.5-5.5 10.9-8.2 16.3-3.6 7.5-7.4 15-11 22.4-3.6 7.3-7.3 14.9-11 22.3l-7.4 15.3c-.4.8-1.4 2.9-4 3.8.3 1.3 0 2.6-.7 3.8v.1c-.4 1.1-1.1 2.4-1.9 3.7zm-2.6-6.8v.2-.2zm100-170.9v.2l.4-.4c-.2.1-.3.1-.4.2z"/><path d="M303.8 280.9c0-7.3 1.8-14 5.8-20.2 4.9-8.7 12.2-15.1 21.6-19.1 2.5-.9 5.3-1.6 7.8-1.6 1.3 0 2.5.2 4 .4 4 .9 6.2 2.9 6.7 6 .2.7.2 1.5.2 2.2-.9 5.6-3.3 10.4-7.6 13.8-.2.2-.5.4-.7.4-.4 0-.7-.2-.9-.7l-.7-.9c-.5-.7-.9-1.5-1.5-2.2l-.2-.4v-.4c0-.2 0-.4.2-.5l.9-.7.9-.7c1.6-2.2 2.9-4.7 3.8-7.6.2-.2.2-.2.2-.4.2-.7.2-1.3.2-1.5l-.5-.7c-.2-.2-.4-.2-.5-.2h-.2l-.7.4-.5.4c-10.2 4.7-17.8 11.6-23.2 20.7-3.8 5.6-6 11.8-6.9 18.9l-.2.9c0 .9 0 1.6.2 2.4.9 4.7 4 6.9 9.4 6.9 5.3-.4 10.4-1.3 15.4-2.5 14.9-4.2 29.1-10 42.3-17.1 15.3-7.8 30.3-16 44.5-24.9l.5-.4.5-.5h.4c.4 0 .7.2.9.4 1.5.9 2.2 2.2 2.5 3.8v.4c0 .2-.2.5-.7.7-.2 0-.2 0-.4.2-8.7 5.3-17.8 10.7-26.7 15.8-14.9 8.5-30.7 15.8-47 22.2-9.1 3.6-18.5 6-28.7 7.3-.9.2-1.8.2-2.9.2-2.2 0-4-.4-6.4-.9-6.5-1.8-10.4-6.7-11.8-14.7.1-2 0-4 0-5.6z"/><path d="M321.9 306.7c-2.8 0-5-.5-7.5-1l-.2-.1c-8.4-2.3-13.5-8.6-15.4-18.6l-.1-.7.1-.7c.1-.7 0-1.8 0-2.9v-1.9c0-8.3 2.2-16 6.5-22.7 5.4-9.6 13.5-16.6 23.9-21.1l.3-.1c3.6-1.3 6.7-1.9 9.5-1.9 1.4 0 2.7.2 4.1.3l1 .1c7.8 1.8 9.9 6.8 10.5 9.8.3 1.2.3 2.4.3 3.2v.4l-.1.4c-1.1 7.1-4.3 12.8-9.3 16.8-.9.8-2.3 1.5-3.9 1.5-2.2 0-4.1-1.2-5.2-3l-.5-.6c-.4-.5-.7-1-1-1.4-.2-.2-.3-.5-.5-.7l-.3-.4-.9-1.8v-2c-4.1 3.4-7.5 7.4-10.4 12.1l-.1.2c-3.3 4.8-5.3 10.3-6.1 16.7l-.1.8v.7l.1.3c.3 1.5.5 2.8 4.4 2.9 4.5-.3 9.2-1.1 14.3-2.4 14.1-4 28-9.6 41.2-16.6 17.9-9.2 31.9-17 44.1-24.7l.1-.1 1.7-1.7h2.4c1.4 0 2.8.5 3.9 1.3 2.3 1.5 3.8 3.8 4.4 6.7l.1.5v.9c0 2.3-1.5 4.3-3.7 5.3-9.9 6-18.3 11-26.6 15.7-14.3 8.2-29.9 15.6-47.7 22.5-9.3 3.7-19 6.2-29.7 7.5-1.2.5-2.4.5-3.6.5zm8.2-59.1c-7 3.6-12.5 8.8-16.2 15.5l-.2.3c-2.3 3.6-3.9 7.5-4.6 11.7 1.3-3.8 3-7.3 5.3-10.5 4.1-6.8 9.4-12.5 15.7-17z"/></svg>