<svg xmlns="http://www.w3.org/2000/svg" xml:space="preserve" id="layer_1" x="0" y="0" style="enable-background:new 0 0 300 300" version="1.1" viewBox="0 0 300 300"><style>.st1{fill:#333;stroke:#333;stroke-width:7;stroke-miterlimit:10}@media (prefers-color-scheme:dark){.st1{fill:#fff;stroke:#fff;stroke-width:6}}</style><path d="M-6.5-6.5h313v313h-313z" style="fill:#fff;stroke:#fff;stroke-miterlimit:10"/><path d="M141.5 159.6c2.6-.4 5-.8 7.6-1 6.9-.9 13.6-2.5 20-4.7 6.2-2.2 12-5.1 17.4-8.8.3-.3.7-.4 1-.4.5 0 .9.3 1.3.8.2.3.3.5.3.8v.3c0 .3-.2.7-.7 1-5.3 3.8-11.3 6.8-17.7 9.1-6.4 2.2-13 3.7-19.9 4.7-4.3.7-8.7 1.2-13.1 1.8-.3 0-.5 0-.8.1-.5.1-.7.5-.9.9-3.2 6.5-6.5 12.9-9.9 19.3-5.2 10.1-10.9 19.8-17.4 28.9-4.3 6.1-9.2 11.7-15 16.5-4.9 4-10.8 6-17.6 6h-.4c-6.1 0-11.3-2.6-15.8-7.8-2.3-3.1-3.8-6.4-4.4-9.9l-.2-1.9c-.1-.9-.1-1.6-.1-2.3 0-6 1.6-11.2 4.6-16 3.7-5.9 8.5-10.7 14.3-14.6 10.2-7.1 21.5-12.6 33.8-16.4 7.1-2.2 14.4-3.7 22-4.7.7-.1.8-.5 1-.9l4-8.3c4-8.2 8.1-16.4 12.1-24.6 6.9-14.2 14.6-27.9 22.9-41.2 3.1-5 6.5-9.6 10.4-14 .1-.1.2-.2.2-.5l-1.7.5c-1.2.4-2.5.8-3.7 1-6.4 1.8-12.8 3.4-19.3 4.9l-10.3 2.6c-11.8 2.7-23.2 6.4-34.2 10.6-6.9 2.7-13.3 6.2-18.9 10.7-2.6 2.2-4.9 4.7-6.8 7.7-2.1 3.5-3.1 7.2-3.1 11.1 0 1.3.1 2.6.4 4 .4 2.1 1 4.2 1.9 6.4l.2.5v.3c0 .5-.4.9-1 .9 0-.1-.2-.1-.4-.1-.7 0-1.2-.4-1.4-1.2-.9-2.3-1.6-4.7-2-7-.3-1.6-.5-3.2-.5-4.8 0-5.5 1.8-10.5 5.5-15 3.9-4.6 8.4-8.2 13.8-11.2 8.9-4.7 18.4-8.5 28.6-11.4 9.1-2.6 18.3-5 27.6-7.2l3.3-.9 1.6-.4c6.7-1.6 13.3-3.3 19.8-5.3 2.7-.9 5.3-2 7.7-3.4.3-.1.5-.2.8-.2.2 0 .4 0 .7.1.5.1.9.4 1.2.9l.4.8v.3c0 .4-.2.8-.7 1.2-4.3 3.1-7.9 7-10.9 11.4-6.7 9.5-12.3 19.5-17.3 30.1-3.7 7.7-7.3 15.2-10.8 22.9l-7.7 16.3-3.2 6.7-1.6 3.3-.3.5c-.1.1-.1.3-.2.5 1.1-.1 2.2-.3 3.5-.3zm-13.3 4.9h-.5l-2 .4c-1.9.3-3.8.7-5.7 1-17.7 3.7-33.2 10.6-47 20.8-5.2 3.8-9.2 8.6-12.2 14.3-1.9 3.5-2.9 7.4-2.9 11.5 0 1.6.1 3.3.4 4.9.8 4.3 2.9 7.9 6.5 10.9 2.9 2.1 5.9 3.2 9.1 3.3.7.1 1.3.1 2 .1 3.3 0 6.2-.8 9-2.2 2.9-1.9 5.3-4 7.8-6.5 5.3-5.7 10-11.8 14.1-18.5 6.5-10.6 12.6-21.5 18.1-32.7l2.3-5c.5-.8.9-1.6 1.2-2.5.1.2-.1.2-.2.2z" class="st1"/><path d="M176.4 163.6c0-4 1-7.7 3.2-11.1 2.7-4.8 6.7-8.3 11.9-10.5 1.4-.5 2.9-.9 4.3-.9.7 0 1.4.1 2.2.2 2.2.5 3.4 1.6 3.7 3.3.1.4.1.8.1 1.2-.5 3.1-1.8 5.7-4.2 7.6-.1.1-.3.2-.4.2-.2 0-.4-.1-.5-.4l-.4-.5c-.3-.4-.5-.8-.8-1.2l-.1-.2v-.2c0-.1 0-.2.1-.3l.5-.4.5-.4c.9-1.2 1.6-2.6 2.1-4.2.1-.1.1-.1.1-.2.1-.4.1-.7.1-.8l-.3-.4c-.1-.1-.2-.1-.3-.1h-.1l-.4.2-.3.2c-5.6 2.6-9.8 6.4-12.8 11.4-2.1 3.1-3.3 6.5-3.8 10.4l-.1.5c0 .5 0 .9.1 1.3.5 2.6 2.2 3.8 5.2 3.8 2.9-.2 5.7-.7 8.5-1.4 8.2-2.3 16-5.5 23.3-9.4 8.4-4.3 16.7-8.8 24.5-13.7l.3-.2.3-.3h.2c.2 0 .4.1.5.2.8.5 1.2 1.2 1.4 2.1v.2c0 .1-.1.3-.4.4-.1 0-.1 0-.2.1-4.8 2.9-9.8 5.9-14.7 8.7-8.2 4.7-16.9 8.7-25.9 12.2-5 2-10.2 3.3-15.8 4-.5.1-1 .1-1.6.1-1.2 0-2.2-.2-3.5-.5-3.6-1-5.7-3.7-6.5-8.1.1-.9 0-2 0-2.9z" class="st1"/></svg>