<svg xmlns="http://www.w3.org/2000/svg" xml:space="preserve" id="layer_1" x="0" y="0" style="enable-background:new 0 0 512 512" version="1.1" viewBox="0 0 512 512"><style>.st1{stroke:#000;stroke-width:14;stroke-miterlimit:10}</style><radialGradient id="SVGID_1_" cx="514.086" cy=".19" r="691.896" gradientTransform="rotate(90 256 256)" gradientUnits="userSpaceOnUse"><stop offset="0" style="stop-color:#fff"/><stop offset="1" style="stop-color:#edf3ff"/></radialGradient><path d="M512 339V173C512 77.5 434.5 0 339 0H173C77.5 0 0 77.5 0 173v166c0 95.6 77.5 173 173 173h166c95.5 0 173-77.5 173-173z" style="fill:url(#SVGID_1_)"/><path d="M238.7 275.5c5.2-.8 10-1.6 15.3-2 13.8-1.8 27.3-5 40.1-9.4 12.4-4.4 24.1-10.2 34.9-17.7.6-.6 1.4-.8 2-.8 1 0 1.8.6 2.6 1.6.4.6.6 1 .6 1.6v.6c0 .6-.4 1.4-1.4 2-10.6 7.6-22.7 13.6-35.5 18.3-12.8 4.4-26.1 7.4-39.9 9.4-8.6 1.4-17.5 2.4-26.3 3.6-.6 0-1 0-1.6.2-1 .2-1.4 1-1.8 1.8-6.4 13-13 25.9-19.9 38.7-10.4 20.3-21.9 39.7-34.9 58-8.6 12.2-18.5 23.5-30.1 33.1-9.8 8-21.7 12-35.3 12h-.8c-12.2 0-22.7-5.2-31.7-15.7-4.6-6.2-7.6-12.8-8.8-19.9l-.4-3.8c-.2-1.8-.2-3.2-.2-4.6 0-12 3.2-22.5 9.2-32.1 7.4-11.8 17.1-21.5 28.7-29.3 20.5-14.2 43.1-25.3 67.8-32.9 14.2-4.4 28.9-7.4 44.1-9.4 1.4-.2 1.6-1 2-1.8l8-16.7c8-16.5 16.3-32.9 24.3-49.4 13.8-28.5 29.3-56 46-82.7 6.2-10 13-19.3 20.9-28.1.2-.2.4-.4.4-1l-3.4 1c-2.4.8-5 1.6-7.4 2-12.8 3.6-25.7 6.8-38.7 9.8l-20.7 5.2c-23.7 5.4-46.6 12.8-68.6 21.3-13.8 5.4-26.7 12.4-37.9 21.5-5.2 4.4-9.8 9.4-13.6 15.5-4.2 7-6.2 14.4-6.2 22.3 0 2.6.2 5.2.8 8 .8 4.2 2 8.4 3.8 12.8l.4 1v.6c0 1-.8 1.8-2 1.8 0-.2-.4-.2-.8-.2-1.4 0-2.4-.8-2.8-2.4-1.8-4.6-3.2-9.4-4-14-.6-3.2-1-6.4-1-9.6 0-11 3.6-21.1 11-30.1 7.8-9.2 16.9-16.5 27.7-22.5 17.9-9.4 36.9-17.1 57.4-22.9 18.3-5.2 36.7-10 55.4-14.4l6.6-1.8 3.2-.8c13.4-3.2 26.7-6.6 39.7-10.6 5.4-1.8 10.6-4 15.5-6.8.6-.2 1-.4 1.6-.4.4 0 .8 0 1.4.2 1 .2 1.8.8 2.4 1.8l.8 1.6v.6c0 .8-.4 1.6-1.4 2.4-8.6 6.2-15.9 14-21.9 22.9-13.4 19.1-24.7 39.1-34.7 60.4-7.4 15.5-14.6 30.5-21.7 46L242.4 254l-6.4 13.4-3.2 6.6-.6 1c-.2.2-.2.6-.4 1 2.1-.1 4.3-.5 6.9-.5zm-26.6 9.8h-1l-4 .8c-3.8.6-7.6 1.4-11.4 2-35.5 7.4-66.6 21.3-94.3 41.7-10.4 7.6-18.5 17.3-24.5 28.7-3.8 7-5.8 14.8-5.8 23.1 0 3.2.2 6.6.8 9.8 1.6 8.6 5.8 15.9 13 21.9 5.8 4.2 11.8 6.4 18.3 6.6 1.4.2 2.6.2 4 .2 6.6 0 12.4-1.6 18.1-4.4 5.8-3.8 10.6-8 15.7-13 10.6-11.4 20.1-23.7 28.3-37.1 13-21.3 25.3-43.1 36.3-65.6l4.6-10c1-1.6 1.8-3.2 2.4-5 .1.3-.3.3-.5.3z" class="st1"/><path d="M308.8 283.5c0-8 2-15.5 6.4-22.3 5.4-9.6 13.4-16.7 23.9-21.1 2.8-1 5.8-1.8 8.6-1.8 1.4 0 2.8.2 4.4.4 4.4 1 6.8 3.2 7.4 6.6.2.8.2 1.6.2 2.4-1 6.2-3.6 11.4-8.4 15.3-.2.2-.6.4-.8.4-.4 0-.8-.2-1-.8l-.8-1c-.6-.8-1-1.6-1.6-2.4l-.2-.4v-.4c0-.2 0-.4.2-.6l1-.8 1-.8c1.8-2.4 3.2-5.2 4.2-8.4.2-.2.2-.2.2-.4.2-.8.2-1.4.2-1.6l-.6-.8c-.2-.2-.4-.2-.6-.2h-.2l-.8.4-.6.4c-11.2 5.2-19.7 12.8-25.7 22.9-4.2 6.2-6.6 13-7.6 20.9l-.2 1c0 1 0 1.8.2 2.6 1 5.2 4.4 7.6 10.4 7.6 5.8-.4 11.4-1.4 17.1-2.8 16.5-4.6 32.1-11 46.8-18.9 16.9-8.6 33.5-17.7 49.2-27.5l.6-.4.6-.6h.4c.4 0 .8.2 1 .4 1.6 1 2.4 2.4 2.8 4.2v.4c0 .2-.2.6-.8.8-.2 0-.2 0-.4.2-9.6 5.8-19.7 11.8-29.5 17.5-16.5 9.4-33.9 17.5-52 24.5-10 4-20.5 6.6-31.7 8-1 .2-2 .2-3.2.2-2.4 0-4.4-.4-7-1-7.2-2-11.4-7.4-13-16.3.1-1.8-.1-4-.1-5.8z" class="st1"/></svg>