<?xml version="1.0" encoding="utf-8"?>
<!-- Generator: $$$/GeneralStr/196=Adobe Illustrator 27.6.0, SVG Export Plug-In . SVG Version: 6.00 Build 0)  -->
<svg version="1.1" id="layer_1" xmlns="http://www.w3.org/2000/svg" xmlns:xlink="http://www.w3.org/1999/xlink" x="0px" y="0px"
	 viewBox="0 0 512 512" style="enable-background:new 0 0 512 512;" xml:space="preserve">
<style type="text/css">
	.st0{fill:url(#SVGID_1_);}
	.st1{stroke:#000000;stroke-width:14;stroke-miterlimit:10;}
</style>
<g id="图层_2_00000177456809164887219810000004872787760249445291_">
	
		<radialGradient id="SVGID_1_" cx="302.0055" cy="212.1111" r="405.4079" gradientTransform="matrix(1.7067 0 0 -1.7067 -1.3369 873.8134)" gradientUnits="userSpaceOnUse">
		<stop  offset="0" style="stop-color:#FFFFFF"/>
		<stop  offset="0.3092" style="stop-color:#FBFCFF"/>
		<stop  offset="0.6173" style="stop-color:#EFF4FF"/>
		<stop  offset="0.9241" style="stop-color:#DBE7FE"/>
		<stop  offset="1" style="stop-color:#D5E3FE"/>
	</radialGradient>
	<rect class="st0" width="512" height="512"/>
</g>
<g>
	<path class="st1" d="M240.1,273.9c4.8-0.7,9.2-1.5,14-1.8c12.7-1.7,25.1-4.6,36.9-8.7c11.4-4.1,22.1-9.4,32.1-16.2
		c0.6-0.6,1.3-0.7,1.8-0.7c0.9,0,1.7,0.6,2.4,1.5c0.4,0.6,0.6,0.9,0.6,1.5v0.6c0,0.6-0.4,1.3-1.3,1.8c-9.8,7-20.8,12.5-32.6,16.8
		c-11.8,4.1-24,6.8-36.7,8.7c-7.9,1.3-16,2.2-24.1,3.3c-0.6,0-0.9,0-1.5,0.2c-0.9,0.2-1.3,0.9-1.7,1.7c-5.9,12-12,23.8-18.2,35.6
		c-9.6,18.6-20.1,36.5-32.1,53.3c-7.9,11.2-17,21.6-27.6,30.4c-9,7.4-19.9,11.1-32.4,11.1H119c-11.2,0-20.8-4.8-29.1-14.4
		c-4.2-5.7-7-11.8-8.1-18.2l-0.4-3.5c-0.2-1.7-0.2-2.9-0.2-4.2c0-11.1,2.9-20.6,8.5-29.5c6.8-10.9,15.7-19.7,26.4-26.9
		c18.8-13.1,39.6-23.2,62.3-30.2c13.1-4.1,26.5-6.8,40.6-8.7c1.3-0.2,1.5-0.9,1.8-1.7l7.4-15.3c7.4-15.1,14.9-30.2,22.3-45.3
		c12.7-26.2,26.9-51.4,42.2-75.9c5.7-9.2,12-17.7,19.2-25.8c0.2-0.2,0.4-0.4,0.4-0.9l-3.1,0.9c-2.2,0.7-4.6,1.5-6.8,1.8
		c-11.8,3.3-23.6,6.3-35.6,9l-19,4.8c-21.7,5-42.8,11.8-63,19.5c-12.7,5-24.5,11.4-34.8,19.7c-4.8,4.1-9,8.7-12.5,14.2
		c-3.9,6.5-5.7,13.3-5.7,20.5c0,2.4,0.2,4.8,0.7,7.4c0.7,3.9,1.8,7.7,3.5,11.8l0.4,0.9v0.6c0,0.9-0.7,1.7-1.8,1.7
		c0-0.2-0.4-0.2-0.7-0.2c-1.3,0-2.2-0.7-2.6-2.2c-1.7-4.2-2.9-8.7-3.7-12.9c-0.6-2.9-0.9-5.9-0.9-8.8c0-10.1,3.3-19.4,10.1-27.6
		c7.2-8.5,15.5-15.1,25.4-20.6c16.4-8.7,33.9-15.7,52.7-21c16.8-4.8,33.7-9.2,50.9-13.3l6.1-1.7l2.9-0.7c12.3-2.9,24.5-6.1,36.5-9.8
		c5-1.7,9.8-3.7,14.2-6.3c0.6-0.2,0.9-0.4,1.5-0.4c0.4,0,0.7,0,1.3,0.2c0.9,0.2,1.7,0.7,2.2,1.7l0.7,1.5v0.6c0,0.7-0.4,1.5-1.3,2.2
		c-7.9,5.7-14.6,12.9-20.1,21c-12.3,17.5-22.7,35.9-31.9,55.5c-6.8,14.2-13.5,28-19.9,42.2l-14.2,30l-5.9,12.3l-2.9,6.1l-0.6,0.9
		c-0.2,0.2-0.2,0.6-0.4,0.9C235.7,274.2,237.8,273.9,240.1,273.9L240.1,273.9z M215.6,282.9h-0.9l-3.7,0.7c-3.5,0.6-7,1.3-10.5,1.8
		c-32.6,6.8-61.2,19.5-86.6,38.3c-9.6,7-17,15.9-22.5,26.4c-3.5,6.5-5.3,13.6-5.3,21.2c0,2.9,0.2,6.1,0.7,9
		c1.5,7.9,5.3,14.6,12,20.1c5.3,3.9,10.9,5.9,16.8,6.1c1.3,0.2,2.4,0.2,3.7,0.2c6.1,0,11.4-1.5,16.6-4.1c5.3-3.5,9.8-7.4,14.4-12
		c9.8-10.5,18.4-21.7,26-34.1c12-19.5,23.2-39.6,33.4-60.3l4.2-9.2c0.9-1.5,1.7-2.9,2.2-4.6C216.2,282.9,215.8,282.9,215.6,282.9
		L215.6,282.9z"/>
	<path class="st1" d="M304.5,281.3c0-7.4,1.8-14.2,5.9-20.5c5-8.8,12.3-15.3,21.9-19.4c2.6-0.9,5.3-1.7,7.9-1.7
		c1.3,0,2.6,0.2,4.1,0.4c4.1,0.9,6.3,2.9,6.8,6.1c0.2,0.7,0.2,1.5,0.2,2.2c-0.9,5.7-3.3,10.5-7.7,14c-0.2,0.2-0.6,0.4-0.7,0.4
		c-0.4,0-0.7-0.2-0.9-0.7l-0.7-0.9c-0.6-0.7-0.9-1.5-1.5-2.2l-0.2-0.4v-0.4c0-0.2,0-0.4,0.2-0.6l0.9-0.7l0.9-0.7
		c1.7-2.2,2.9-4.8,3.9-7.7c0.2-0.2,0.2-0.2,0.2-0.4c0.2-0.7,0.2-1.3,0.2-1.5l-0.6-0.7c-0.2-0.2-0.4-0.2-0.6-0.2h-0.2l-0.7,0.4
		l-0.6,0.4c-10.3,4.8-18.1,11.8-23.6,21c-3.9,5.7-6.1,12-7,19.2l-0.2,0.9c0,0.9,0,1.7,0.2,2.4c0.9,4.8,4.1,7,9.6,7
		c5.3-0.4,10.5-1.3,15.7-2.6c15.1-4.2,29.5-10.1,42.9-17.3c15.5-7.9,30.8-16.2,45.2-25.3l0.6-0.4l0.6-0.6h0.4c0.4,0,0.7,0.2,0.9,0.4
		c1.5,0.9,2.2,2.2,2.6,3.9v0.4c0,0.2-0.2,0.6-0.7,0.7c-0.2,0-0.2,0-0.4,0.2c-8.8,5.3-18.1,10.9-27.1,16c-15.1,8.7-31.1,16-47.7,22.5
		c-9.2,3.7-18.8,6.1-29.1,7.4c-0.9,0.2-1.8,0.2-2.9,0.2c-2.2,0-4.1-0.4-6.5-0.9c-6.6-1.8-10.5-6.8-12-14.9
		C304.7,284.9,304.5,282.9,304.5,281.3L304.5,281.3z"/>
</g>
</svg>
