<svg xmlns="http://www.w3.org/2000/svg" xml:space="preserve" id="layer_1" x="0" y="0" style="enable-background:new 0 0 512 512" version="1.1" viewBox="0 0 512 512"><style>.st1{stroke:#000;stroke-width:14;stroke-miterlimit:10}</style><radialGradient id="SVGID_1_" cx="514.086" cy=".19" r="691.896" gradientTransform="rotate(90 256 256)" gradientUnits="userSpaceOnUse"><stop offset="0" style="stop-color:#fff"/><stop offset="1" style="stop-color:#edf3ff"/></radialGradient><path d="M512 339V173C512 77.5 434.5 0 339 0H173C77.5 0 0 77.5 0 173v166c0 95.6 77.5 173 173 173h166c95.5 0 173-77.5 173-173z" style="fill:url(#SVGID_1_)"/><path d="M240.1 273.9c4.8-.7 9.2-1.5 14-1.8 12.7-1.7 25.1-4.6 36.9-8.7 11.4-4.1 22.1-9.4 32.1-16.2.6-.6 1.3-.7 1.8-.7.9 0 1.7.6 2.4 1.5.4.6.6.9.6 1.5v.6c0 .6-.4 1.3-1.3 1.8-9.8 7-20.8 12.5-32.6 16.8-11.8 4.1-24 6.8-36.7 8.7-7.9 1.3-16 2.2-24.1 3.3-.6 0-.9 0-1.5.2-.9.2-1.3.9-1.7 1.7-5.9 12-12 23.8-18.2 35.6-9.6 18.6-20.1 36.5-32.1 53.3-7.9 11.2-17 21.6-27.6 30.4-9 7.4-19.9 11.1-32.4 11.1h-.7c-11.2 0-20.8-4.8-29.1-14.4-4.2-5.7-7-11.8-8.1-18.2l-.4-3.5c-.2-1.7-.2-2.9-.2-4.2 0-11.1 2.9-20.6 8.5-29.5 6.8-10.9 15.7-19.7 26.4-26.9 18.8-13.1 39.6-23.2 62.3-30.2 13.1-4.1 26.5-6.8 40.6-8.7 1.3-.2 1.5-.9 1.8-1.7l7.4-15.3c7.4-15.1 14.9-30.2 22.3-45.3 12.7-26.2 26.9-51.4 42.2-75.9 5.7-9.2 12-17.7 19.2-25.8.2-.2.4-.4.4-.9l-3.1.9c-2.2.7-4.6 1.5-6.8 1.8-11.8 3.3-23.6 6.3-35.6 9l-19 4.8c-21.7 5-42.8 11.8-63 19.5-12.7 5-24.5 11.4-34.8 19.7-4.8 4.1-9 8.7-12.5 14.2-3.9 6.5-5.7 13.3-5.7 20.5 0 2.4.2 4.8.7 7.4.7 3.9 1.8 7.7 3.5 11.8l.4.9v.6c0 .9-.7 1.7-1.8 1.7 0-.2-.4-.2-.7-.2-1.3 0-2.2-.7-2.6-2.2-1.7-4.2-2.9-8.7-3.7-12.9-.6-2.9-.9-5.9-.9-8.8 0-10.1 3.3-19.4 10.1-27.6 7.2-8.5 15.5-15.1 25.4-20.6 16.4-8.7 33.9-15.7 52.7-21 16.8-4.8 33.7-9.2 50.9-13.3l6.1-1.7 2.9-.7c12.3-2.9 24.5-6.1 36.5-9.8 5-1.7 9.8-3.7 14.2-6.3.6-.2.9-.4 1.5-.4.4 0 .7 0 1.3.2.9.2 1.7.7 2.2 1.7l.7 1.5v.6c0 .7-.4 1.5-1.3 2.2-7.9 5.7-14.6 12.9-20.1 21-12.3 17.5-22.7 35.9-31.9 55.5-6.8 14.2-13.5 28-19.9 42.2l-14.2 30-5.9 12.3-2.9 6.1-.6.9c-.2.2-.2.6-.4.9 1.7-.7 3.8-1 6.1-1zm-24.5 9h-.9l-3.7.7c-3.5.6-7 1.3-10.5 1.8-32.6 6.8-61.2 19.5-86.6 38.3-9.6 7-17 15.9-22.5 26.4-3.5 6.5-5.3 13.6-5.3 21.2 0 2.9.2 6.1.7 9 1.5 7.9 5.3 14.6 12 20.1 5.3 3.9 10.9 5.9 16.8 6.1 1.3.2 2.4.2 3.7.2 6.1 0 11.4-1.5 16.6-4.1 5.3-3.5 9.8-7.4 14.4-12 9.8-10.5 18.4-21.7 26-34.1 12-19.5 23.2-39.6 33.4-60.3l4.2-9.2c.9-1.5 1.7-2.9 2.2-4.6.1.5-.3.5-.5.5z" class="st1"/><path d="M304.5 281.3c0-7.4 1.8-14.2 5.9-20.5 5-8.8 12.3-15.3 21.9-19.4 2.6-.9 5.3-1.7 7.9-1.7 1.3 0 2.6.2 4.1.4 4.1.9 6.3 2.9 6.8 6.1.2.7.2 1.5.2 2.2-.9 5.7-3.3 10.5-7.7 14-.2.2-.6.4-.7.4-.4 0-.7-.2-.9-.7l-.7-.9c-.6-.7-.9-1.5-1.5-2.2l-.2-.4v-.4c0-.2 0-.4.2-.6l.9-.7.9-.7c1.7-2.2 2.9-4.8 3.9-7.7.2-.2.2-.2.2-.4.2-.7.2-1.3.2-1.5l-.6-.7c-.2-.2-.4-.2-.6-.2h-.2l-.7.4-.6.4c-10.3 4.8-18.1 11.8-23.6 21-3.9 5.7-6.1 12-7 19.2l-.2.9c0 .9 0 1.7.2 2.4.9 4.8 4.1 7 9.6 7 5.3-.4 10.5-1.3 15.7-2.6 15.1-4.2 29.5-10.1 42.9-17.3 15.5-7.9 30.8-16.2 45.2-25.3l.6-.4.6-.6h.4c.4 0 .7.2.9.4 1.5.9 2.2 2.2 2.6 3.9v.4c0 .2-.2.6-.7.7-.2 0-.2 0-.4.2-8.8 5.3-18.1 10.9-27.1 16-15.1 8.7-31.1 16-47.7 22.5-9.2 3.7-18.8 6.1-29.1 7.4-.9.2-1.8.2-2.9.2-2.2 0-4.1-.4-6.5-.9-6.6-1.8-10.5-6.8-12-14.9 0-1.8-.2-3.8-.2-5.4z" class="st1"/></svg>