<svg xmlns="http://www.w3.org/2000/svg" xml:space="preserve" id="图层_1" x="0" y="0" style="enable-background:new 0 0 300 300" version="1.1" viewBox="0 0 300 300"><style>.st1{stroke:#000;stroke-width:.5;stroke-miterlimit:10}</style><g id="图层_2_00000137821497114936189500000012781838018773219763_"><radialGradient id="SVGID_1_" cx="301.222" cy="255.889" r="405.408" gradientTransform="translate(0 44)" gradientUnits="userSpaceOnUse"><stop offset="0" style="stop-color:#fff"/><stop offset="1" style="stop-color:#edf3ff"/></radialGradient><path d="M0 0h300v300H0z" style="fill:url(#SVGID_1_)"/></g><path d="m45.8 176.3 4.6-43.7c1-.3 1.9-.4 2.8-.4 1 0 2 .1 2.8.4L52 171h21.4c.2.3.2.8.2 1.5s-.1 1.4-.2 2.1c-.1.7-.3 1.3-.6 1.7h-27z" class="st1"/><path d="M74.2 170.9c1.4 0 2.8-.7 4.2-2 1.5-1.4 2.7-3.2 3.9-5.5 0-.6.1-1.1.1-1.7.3-3.1 1.2-5.8 2.7-8.2s3.3-4.3 5.5-5.6c2.2-1.4 4.7-2.1 7.3-2.1 1.4 0 2.8.3 4.1.8 1.3.5 2.4 1.3 3.2 2.2l.3-2.5c.4-.1.8-.2 1.3-.3s1-.1 1.5-.1c1 0 1.9.1 2.7.4l-1.9 17.8c-.2 2.1-.1 3.8.5 5 .5 1.2 1.6 1.8 3.2 1.8.7 0 1.1.3 1.3.8s.2 1.2.2 1.8c-.1.6-.3 1.2-.7 1.8-.4.5-1 .8-1.7.8-4 0-6.4-1.8-7.4-5.3-1.3 1.7-2.9 3-4.8 3.9s-3.9 1.4-6 1.4c-2.3 0-4.4-.5-6-1.5-1.7-1-3-2.5-3.9-4.3-2.9 3.9-6.4 5.8-10.5 5.8-.5 0-.9-.2-1.2-.7s-.4-1.1-.3-1.9c.1-1.7.9-2.6 2.4-2.6zm13.8-9.2c-.3 2.9.1 5.1 1.3 6.8 1.1 1.6 2.9 2.5 5.2 2.5 2.5 0 4.7-.9 6.4-2.8 1.8-1.9 2.8-4.4 3.1-7.4l.6-6c-.7-1.1-1.6-2-2.8-2.6-1.2-.7-2.4-1-3.8-1-1.7 0-3.3.5-4.8 1.4-1.4.9-2.6 2.2-3.5 3.8-.9 1.4-1.5 3.3-1.7 5.3z" class="st1"/><path d="M112.8 170.9c.8 0 1.8-.3 2.8-.8s2-1.3 3-2.4c1.2-1.4 2.1-2.9 2.7-4.7.7-1.8 1.1-3.6 1.4-5.4l1.1-10.9c.4-.1.8-.2 1.3-.3s1-.1 1.5-.1c.9 0 1.8.1 2.7.4l-1.8 17.5c-.2 2.1-.1 3.8.5 5 .5 1.2 1.6 1.8 3.2 1.8.7 0 1.1.3 1.3.8s.2 1.2.2 1.8c-.1.6-.3 1.2-.7 1.8-.4.5-1 .8-1.7.8-4.2 0-6.7-2-7.6-5.9-.7.9-1.4 1.7-2.1 2.4-1.2 1.1-2.6 2-4.1 2.6s-3.1 1-4.7 1c-.6 0-1-.3-1.2-.8s-.3-1.1-.3-1.8c.1-.7.3-1.3.7-1.8.5-.7 1-1 1.8-1zm15.1-34.4c-1.1 0-2.1-.4-2.8-1.2-.7-.8-1-1.8-.9-2.9.1-1.2.6-2.2 1.5-2.9.9-.8 1.9-1.2 3.1-1.2 1.2 0 2.1.4 2.8 1.2.7.8 1 1.8.9 2.9-.1 1.1-.6 2.1-1.5 2.9s-1.9 1.2-3.1 1.2z" class="st1"/><path d="M130.3 176.1c-.5 0-.9-.2-1.2-.7s-.4-1.1-.3-1.9c.2-1.7 1-2.6 2.5-2.6 1.3 0 2.5-.7 3.7-2s2.3-3.5 3.4-6.6l2.6-7.1c2.4-6.3 5.9-9.5 10.7-9.5 1.8 0 3.3.5 4.4 1.6 1.1 1.1 1.9 2.5 2.1 4.3 1.3-1.9 2.9-3.4 4.8-4.4 1.9-1 3.9-1.5 6.1-1.5 3.2 0 5.5 1 7 3.1s2.1 4.9 1.7 8.7l-.7 7.1c-.2 2.3-.1 4 .4 4.9s1.4 1.4 2.6 1.4c.6 0 1 .2 1.2.7.3.5.3 1.1.3 1.9-.1.6-.3 1.2-.7 1.8-.4.5-1 .8-1.7.8-2.5 0-4.5-.8-6-2.5s-2.1-4.4-1.7-8.3l.8-7.8c.5-4.4-1-6.5-4.5-6.5-1.8 0-3.4.7-4.9 2.1-1.5 1.4-2.8 3.4-3.8 5.9s-1.7 5.4-2 8.7l-.8 7.5c-.4.1-.9.2-1.4.3s-1 .1-1.4.1c-1 0-1.9-.1-2.7-.4l2-19.3c.3-3.3-.4-4.9-2.3-4.9-.8 0-1.6.4-2.3 1.2s-1.3 2-2 3.7l-3.2 8.7c-1.5 4-3.2 6.9-5.3 8.8-1.9 1.8-4.5 2.7-7.4 2.7z" class="st1"/><path d="M179 176.1c-.5 0-.9-.2-1.2-.7s-.4-1.1-.3-1.9c.1-.8.3-1.4.8-1.9.4-.5 1-.7 1.6-.7 1.5 0 3.1-.6 4.9-1.8 1.8-1.2 3.6-2.8 5.4-4.8-.3-2.9-.2-7.1.3-12.4l1.8-16.8c.4-3.4.7-6.1 1.2-8.1.4-2.1 1-3.8 1.7-5.1 1-2 2.3-3.6 3.8-4.7 1.6-1.1 3.3-1.6 5.3-1.6 2.7 0 4.8 1.3 6.2 4s1.8 6.3 1.3 10.8c-.4 3.8-1.3 7.8-2.7 11.9-1.4 4.1-3.2 8.1-5.4 12.1s-4.8 7.7-7.8 11.2c.1.3.2.5.3.8.7 1.5 1.6 2.6 2.7 3.3 1.1.7 2.5 1.1 4.2 1.1 1.8 0 3.5-.5 4.9-1.5 1.5-1 2.7-2.4 3.7-4.2s1.6-3.9 1.8-6.2c.1-.8.1-1.7.1-2.5-2.4-1.6-3.9-3-4.6-4.3.4-.8.9-1.6 1.6-2.3.7-.7 1.5-1.4 2.3-1.8.8-.5 1.6-.7 2.3-.7.9 0 1.7.5 2.4 1.5s1.1 2.3 1.4 3.9c.3 1.6.3 3.4.1 5.4-.4 3.6-1.3 6.8-2.8 9.5s-3.4 4.8-5.7 6.2c-2.4 1.5-5 2.2-8 2.2-5.3 0-8.9-2-10.8-5.9-4.2 4-8.4 6-12.8 6zm16.8-25.3c-.3 3.3-.5 6-.5 8.1 3.3-4.8 5.9-9.6 7.9-14.5 1.9-4.9 3.2-9.6 3.6-14 .7-6.5-.4-9.8-3.2-9.8-1.7 0-3 1.1-3.9 3.3-.9 2-1.5 5.5-2.1 10.5l-1.8 16.4zM221.4 170.9c1.3 0 2.7-.6 4.1-1.9s2.7-3 3.8-5.1c-.1-1 0-2 .1-3 .3-2.9 1.2-5.5 2.7-7.8s3.4-4 5.7-5.4c2.3-1.3 4.8-2 7.5-2s5.1.7 7.1 2 3.5 3.1 4.5 5.4c1 2.3 1.3 4.8 1 7.8-.3 2.9-1.2 5.5-2.7 7.8-1.5 2.3-3.3 4.1-5.6 5.4s-4.8 2-7.5 2c-2.5 0-4.6-.5-6.5-1.6s-3.4-2.5-4.5-4.4c-2.9 4-6.5 6-10.6 6-.5 0-.9-.2-1.2-.7s-.4-1.1-.3-1.9c.1-1.7.9-2.6 2.4-2.6zm21.1 0c2.6 0 4.8-.9 6.5-2.7s2.8-4.2 3.1-7.3c.2-1.5.1-2.9-.2-4.1-2.4-.1-4.6-.6-6.4-1.5-1.9-.9-3.3-2.1-4.3-3.6-1.7.7-3.1 1.8-4.2 3.5-1.1 1.6-1.8 3.6-2 5.8-.3 2.9.2 5.3 1.6 7.1 1.4 1.9 3.3 2.8 5.9 2.8z" class="st1"/></svg>
